<svg id="visual" viewBox="0 0 900 600" width="900" height="600" xmlns="http://www.w3.org/2000/svg" xmlns:xlink="http://www.w3.org/1999/xlink" version="1.1"><rect x="0" y="0" width="900" height="600" fill="#000"></rect><path d="M0 437L90 430L180 449L270 460L360 436L450 473L540 433L630 461L720 448L810 421L900 436L900 601L810 601L720 601L630 601L540 601L450 601L360 601L270 601L180 601L90 601L0 601Z" fill="#474846"></path><path d="M0 428L90 452L180 466L270 489L360 455L450 434L540 462L630 462L720 494L810 494L900 465L900 601L810 601L720 601L630 601L540 601L450 601L360 601L270 601L180 601L90 601L0 601Z" fill="#40403e"></path><path d="M0 516L90 493L180 495L270 472L360 492L450 466L540 503L630 494L720 475L810 503L900 516L900 601L810 601L720 601L630 601L540 601L450 601L360 601L270 601L180 601L90 601L0 601Z" fill="#393937"></path><path d="M0 488L90 535L180 513L270 528L360 511L450 503L540 504L630 530L720 499L810 531L900 517L900 601L810 601L720 601L630 601L540 601L450 601L360 601L270 601L180 601L90 601L0 601Z" fill="#313130"></path><path d="M0 555L90 549L180 554L270 523L360 544L450 531L540 539L630 536L720 560L810 518L900 538L900 601L810 601L720 601L630 601L540 601L450 601L360 601L270 601L180 601L90 601L0 601Z" fill="#2a2a29"></path><path d="M0 552L90 550L180 578L270 557L360 560L450 577L540 553L630 578L720 564L810 557L900 578L900 601L810 601L720 601L630 601L540 601L450 601L360 601L270 601L180 601L90 601L0 601Z" fill="#232322"></path></svg>